inDegrees=no
num_controls=7
num_derivatives=13
num_iterations=205
num_multipliers=7
num_parameters=0
num_slacks=7
num_states=26
objective=5.990795
objective_accelerations=0.552811
objective_balance=0.058959
objective_effort=0.480165
objective_height=4.781840
objective_ligament=0.117020
solver_duration=2167.860142
status=Solve_Succeeded
success=true
DataType=double
version=3
OpenSimVersion=4.4-2022-07-23-0e9fedc
endheader
time	/jointset/ground_pelvis/pelvis_tilt/value	/jointset/ground_pelvis/pelvis_tx/value	/jointset/ground_pelvis/pelvis_ty/value	/jointset/hip_l/hip_flexion_l/value	/jointset/hip_l/hip_adduction_l/value	/jointset/hip_l/hip_rotation_l/value	/jointset/back/lumbar_extension/value	/jointset/patellofemoral_l/patellar_flexion_l/value	/jointset/knee_l/knee_flexion_l/value	/jointset/knee_l/knee_adduction_l/value	/jointset/knee_l/knee_rotation_l/value	/jointset/ankle_l/ankle_angle_l/value	/jointset/subtalar_l/subtalar_angle_l/value	/jointset/ground_pelvis/pelvis_tilt/speed	/jointset/ground_pelvis/pelvis_tx/speed	/jointset/ground_pelvis/pelvis_ty/speed	/jointset/hip_l/hip_flexion_l/speed	/jointset/hip_l/hip_adduction_l/speed	/jointset/hip_l/hip_rotation_l/speed	/jointset/back/lumbar_extension/speed	/jointset/patellofemoral_l/patellar_flexion_l/speed	/jointset/knee_l/knee_flexion_l/speed	/jointset/knee_l/knee_adduction_l/speed	/jointset/knee_l/knee_rotation_l/speed	/jointset/ankle_l/ankle_angle_l/speed	/jointset/subtalar_l/subtalar_angle_l/speed	/forceset/tau_hip_flexion_l	/forceset/tau_hip_adduction_l	/forceset/tau_hip_rotation_l	/forceset/tau_knee_flexion_l	/forceset/tau_ankle_angle_l	/forceset/tau_subtalar_angle_l	/forceset/tau_lumbar_extension	lambda_cid13_p0	lambda_cid13_p1	lambda_cid13_p2	lambda_cid13_p3	lambda_cid13_p4	lambda_cid13_p5	lambda_cid14_p0	/jointset/ground_pelvis/pelvis_tilt/accel	/jointset/ground_pelvis/pelvis_tx/accel	/jointset/ground_pelvis/pelvis_ty/accel	/jointset/hip_l/hip_flexion_l/accel	/jointset/hip_l/hip_adduction_l/accel	/jointset/hip_l/hip_rotation_l/accel	/jointset/back/lumbar_extension/accel	/jointset/patellofemoral_l/patellar_flexion_l/accel	/jointset/knee_l/knee_flexion_l/accel	/jointset/knee_l/knee_adduction_l/accel	/jointset/knee_l/knee_rotation_l/accel	/jointset/ankle_l/ankle_angle_l/accel	/jointset/subtalar_l/subtalar_angle_l/accel	gamma_cid13_p0	gamma_cid13_p1	gamma_cid13_p2	gamma_cid13_p3	gamma_cid13_p4	gamma_cid13_p5	gamma_cid14_p0
1	-0.09130893892280927	-0.03784995996396806	0.6882422784993987	1.278204311336166	-0.3305805375132079	0.07049045884114506	-0.9599310875061332	1.412124981599145	1.412124981599254	-0.06090563146383558	-0.1745328361719333	0.3254461211809884	0.08267470658814849	0.1070694209264818	0.02625986894794772	0.06959393788970167	-0.3038217197969704	-0.007467721783117116	-0.06549425464734741	-0.000441339856754946	-0.1637137195209428	-0.1637137195209322	-0.003552412929396872	-5.670699320308674e-06	0.02371458734359729	0.001954416166409962	-0.3635424008390111	0.02683654772149185	0.001247337495249386	-0.3734587476166756	-0.01292617884826368	0.02750161496876212	0.4211171746840025	-54.96787068553942	-1.529536219079751	-1.112758140528722	17.39341512818169	-798.8840425143634	-69.71113270424513	-0.04124810877886644	0.7716591894320095	-0.06419949255360764	1.518511418865059	-4.762219711253596	-0.07982829240085314	-1.667581932644638	0.06847720260524252	-5.041345448333129	-5.041345448333096	-0.3385916503224626	-0.01942695919167452	-1.41342670568389	-0.7561826850525879	-9.308992273740908e-09	2.223399165637695e-08	6.225204616567487e-08	6.485538275712109e-09	-2.424581735808e-08	1.28368511043222e-07	-1.698977616348898e-08
1.01	-0.09020012563266505	-0.0375904736776971	0.6890139126641783	1.274928926351131	-0.3306584651345889	0.06975136382967004	-0.9599310885968813	1.41023622600256	1.410236226002632	-0.06095618452808616	-0.1745328400961588	0.3256128006128134	0.08265759878810892	0.1146834005869719	0.02564776101587617	0.08472027501494825	-0.3512269136801211	-0.00810937553015359	-0.08231651790164453	0.0004914396092224392	-0.2140250485932601	-0.2140250485932791	-0.006555162202350777	3.446675108638886e-06	0.009616663740358163	-0.005366093598467103	-0.3629140564922601	0.02698776969575493	0.001172330748130247	-0.3731577266039984	-0.01301421408913743	0.02766127826432228	0.4209708029891956	-54.9610912584518	-1.619616812147119	-1.076063861515473	17.18070669131869	-798.6329591001357	-69.79819277958258	-0.04127961675153274	0.7547898807298934	-0.05815755058033591	1.507795662568825	-4.725417535188773	-0.05507728134739188	-1.688332007396621	0.1134119605397055	-5.024169286828839	-5.02416928683326	-0.280672614850505	0.0108876289824599	-1.408671033173326	-0.7185156897175482	-1.681374090541198e-08	1.432839254780861e-08	9.163589839838298e-08	1.484799788548027e-08	-3.087846334939732e-08	1.455775516659838e-07	-2.32837308005117e-08
1.02	-0.08901546804064511	-0.03733679669215609	0.6899364303608534	1.271180339765595	-0.3307425579665396	0.06884428948853941	-0.959920227561697	1.407844728585224	1.407844728585254	-0.06103667629487675	-0.1745327915379924	0.3256383616395	0.08256757977691788	0.1222382813023625	0.02509800880195794	0.09977064426872731	-0.3984620398969928	-0.008700763896882749	-0.09909012057891758	0.001733564753029468	-0.264262083671494	-0.2642620836715427	-0.009540153438053544	4.825778429469699e-06	-0.004509093684058657	-0.01262782606383574	-0.3622857121455069	0.02713899167002021	0.001097324001048638	-0.3728567055913228	-0.01310224933001282	0.0278209415598843	0.4208244312943912	-54.96657776694332	-1.705989648114065	-1.041742919455642	17.0301714857314	-798.538998000664	-69.86126458405225	-0.0413124724166314	0.7598394004121098	-0.05172834892293787	1.503317844571554	-4.728206177997815	-0.0697752163393958	-1.657849817239826	0.1303463381711286	-5.026486649516415	-5.026486649516458	-0.3350400428722384	-0.02097461341330519	-1.41899346991942	-0.7444272251509045	-2.38806929802544e-08	3.117427232841831e-09	1.2062533852614e-07	2.105372788205236e-08	-3.781113712511831e-08	1.584369403334458e-07	-2.959746234793024e-08
1.03	-0.08775596333759383	-0.03708807644047024	0.6910090435299422	1.266960430284734	-0.3308322938620754	0.06776979377442433	-0.9598936331078209	1.404951282409369	1.404951282409366	-0.06114694834487934	-0.1745327142188498	0.3255228239745286	0.08240542745076596	0.1296129106015819	0.02467962320517657	0.1147367773144004	-0.4454755987977996	-0.009238416305169389	-0.1157976194432001	0.003812528203173291	-0.3144107237450774	-0.3144107237450932	-0.01251311622391185	9.349265722749359e-06	-0.0185736032452676	-0.01977735278109424	-0.3629502233545056	0.0274193208948817	0.0009816746711396171	-0.3720630351821162	-0.01334313907858289	0.0280866035456492	0.4222374431570557	-55.04196304907509	-1.843103650459495	-0.9799772854136974	16.47541719958756	-799.1930604907017	-69.92911881672732	-0.0413523345763549	0.7188100027056845	-0.03185092956007465	1.490970207962787	-4.681295842722037	-0.04457451834509318	-1.675518437693893	0.2807516752882511	-5.006581302568128	-5.006581302563188	-0.2782727418841068	0.01100666374429545	-1.396456791045234	-0.6964385519576357	-3.094317774329244e-08	-8.127266308720869e-09	1.496107540405813e-07	2.723745043359182e-08	-4.474687240884341e-08	1.712519447972822e-07	-3.591139570055692e-08
1.04	-0.08642420527994497	-0.03684253149765308	0.6922308598641672	1.26227171219555	-0.3309271691347481	0.06652855936833185	-0.9598394329540618	1.401556844109521	1.401556844109479	-0.06128691969182729	-0.17453262349806	0.3252673857955807	0.08217253522605229	0.136688952221956	0.02446294702822108	0.1296112772959499	-0.4922237615626067	-0.009728639324326096	-0.1324378589743406	0.007254704727408494	-0.3644605084702167	-0.3644605084702008	-0.01548001282743212	7.506110761753758e-06	-0.0324891964794207	-0.02677580577612551	-0.3636147345634871	0.02769965011974118	0.0008660253412672112	-0.3712693647729086	-0.01358402882715731	0.02835226553140874	0.4236504550197362	-55.12984564023797	-1.976410199150506	-0.9206684913138781	15.98111349723218	-800.0082233353257	-69.97339341377159	-0.0413933446271889	0.7001218646430247	-0.01138646495774967	1.484991231746834	-4.675126950797865	-0.06028933851342862	-1.644397950611421	0.4029889529893559	-5.006715579827604	-5.006715579827893	-0.3338268064046408	-0.02224794186419518	-1.389210204508236	-0.7142124807054764	-3.518042060708333e-08	-2.178798262146945e-08	1.772207469029602e-07	2.758397809250928e-08	-5.03371991039976e-08	1.745032866636415e-07	-4.13761776070128e-08
1.05	-0.08502302436830554	-0.03659818857175237	0.6936008883059668	1.257116911385802	-0.3310266772705595	0.06512135932805592	-0.9597445569058601	1.397662517937499	1.397662517937465	-0.06145655428471816	-0.1745325827454279	0.3248734325425083	0.08187042683883486	0.143511280962181	0.02443486294301488	0.1443715108000666	-0.5386831728167201	-0.01016068309604714	-0.1489848247767531	0.0118939059652004	-0.4143767587624074	-0.4143767587623911	-0.01844302091984666	1.015521507864827e-06	-0.04628675942309946	-0.03361764757270266	-0.3635345273876723	0.02793589629428877	0.0007185906180146207	-0.3702712030000506	-0.01356660772613375	0.02867522333482224	0.4243022353494137	-55.08582146343251	-2.167347727736893	-0.8411471800950076	15.47059369099899	-800.0637688761706	-70.07987188878927	-0.04145081533760878	0.6678929165396729	0.005869889663049457	1.468093137020936	-4.623368704696976	-0.0328375712415294	-1.657285932383141	0.5203958669181211	-4.979875260343987	-4.979875260343745	-0.2769811251547507	0.01025069868523844	-1.372828734655	-0.6649546938576582	-3.932937466152278e-08	-3.552419964581757e-08	2.047877578074622e-07	2.774809341103232e-08	-5.588548178075895e-08	1.774557640738297e-07	-4.681442353077585e-08
1.06	-0.08355469926169674	-0.03635324863271076	0.695117829828263	1.251499112365123	-0.3311301409790352	0.06354920162228887	-0.9595980868137285	1.39326987016127	1.393269870161235	-0.06165570762143007	-0.1745325868354436	0.3243419437809279	0.08150074310070662	0.1501177912155045	0.02458234965640485	0.1589938933952555	-0.5848234037499909	-0.01051975385736965	-0.1654293920722451	0.01757351351275516	-0.4641248293117659	-0.4641248293117475	-0.02138376159205933	-1.462422097412346e-06	-0.05999629818106974	-0.0402908759582328	-0.3634543202118338	0.0281721424688321	0.0005711558948191562	-0.369273041227189	-0.01354918662511542	0.0289981811382264	0.4249540156791127	-55.05443173579464	-2.354392998309984	-0.7641656806306734	15.01825645034211	-800.2826948107491	-70.16411484452931	-0.04150904493796037	0.6569581672627262	0.02372769476149144	1.457421049961277	-4.611290886629338	-0.04569473643373014	-1.623918249227299	0.6110702149419067	-4.973079631261149	-4.973079631261156	-0.3293733223642744	-0.02144541273448407	-1.371605367366527	-0.680489798496079	-4.41570769431545e-08	-5.030886176515709e-08	2.295377309393131e-07	2.891452908908923e-08	-6.147934818086386e-08	1.785190918521075e-07	-5.199228858638646e-08
1.07	-0.0820213746354352	-0.0361059353578147	0.6967802414174641	1.245421610309227	-0.3312368148359536	0.0618132222668878	-0.9593896177286547	1.38838068332513	1.388380683325118	-0.06188421813534776	-0.174532603277254	0.323673791031119	0.08106520150081599	0.1565113352631747	0.02491168086824498	0.1734589885015751	-0.6306126610782019	-0.0108006289788666	-0.1817438328290149	0.02429555739383749	-0.5136748518285094	-0.5136748518285428	-0.02431465265038285	-1.829191319198706e-06	-0.07362021215529005	-0.0467851651920483	-0.3631134339674681	0.02841197963173842	0.0003915487631590247	-0.3679922955618951	-0.01339005421505468	0.02938681659672162	0.425387036930151	-54.94546157139625	-2.594407435832372	-0.6663326440303035	14.46596630707061	-800.0965387619174	-70.29266326229639	-0.04157884530480788	0.6251790077230922	0.04224821033225664	1.436624855190021	-4.553096686418407	-0.01715299346871187	-1.63185825234339	0.7290595584172501	-4.94029914443639	-4.940299144444166	-0.2744263751655989	0.01072102782355215	-1.355683606496563	-0.6290759936845665	-4.90208828538922e-08	-6.514929224061318e-08	2.541378616364485e-07	3.013427967988731e-08	-6.707563924710405e-08	1.794819329478367e-07	-5.715630359581874e-08
1.08	-0.08042518927185591	-0.03585438629561286	0.6985864181805732	1.238888144973953	-0.3313458712627785	0.05991476825122886	-0.9591086705880235	1.382997129147311	1.382997129147315	-0.06214193343536636	-0.1745326127193896	0.3228698193027588	0.08056568150701494	0.1626899386790045	0.02542950711756079	0.1877469281768006	-0.6760160596264696	-0.01099626783880273	-0.197924324123448	0.03206912462395652	-0.5629982976474716	-0.5629982976475574	-0.02722471881267727	-6.248695775526354e-08	-0.08716009389138175	-0.05308655474027514	-0.3627725477230849	0.02865181679464038	0.0002119416315630597	-0.3667115498965986	-0.01323092180499863	0.02977545205520747	0.4258200581812049	-54.84933469878597	-2.830382401308853	-0.5711892879414588	13.96974662269148	-800.0767024011196	-70.40045281962188	-0.04164699341399188	0.6139700408946183	0.06142670225663245	1.421989963742477	-4.534119130640649	-0.02864748412156765	-1.597128356759961	0.8213748847492361	-4.927764291704916	-4.927764291705062	-0.3252083431584618	-0.02101871801783724	-1.354798919740801	-0.6419098613783446	-5.340047623829405e-08	-8.062097347948924e-08	2.741137337512617e-07	3.069484857944874e-08	-7.20364147066357e-08	1.759844351952891e-07	-6.146917374236735e-08
